<mxfile host="app.diagrams.net" modified="2022-03-14T03:04:42.660Z" agent="5.0 (X11)" etag="PwSO5glRhzI9HNwANj20" version="17.1.2" type="github">
  <diagram id="j9gOoGF4e45znRuti0Jy" name="Page-1">
    <mxGraphModel dx="868" dy="433" grid="1" gridSize="10" guides="1" tooltips="1" connect="1" arrows="1" fold="1" page="1" pageScale="1" pageWidth="827" pageHeight="1169" math="0" shadow="0">
      <root>
        <mxCell id="0" />
        <mxCell id="1" parent="0" />
        <mxCell id="_c35fh7YaVgXNuq9wMzC-2" value="Autor" style="swimlane;childLayout=stackLayout;horizontal=1;startSize=30;horizontalStack=0;rounded=1;fontSize=14;fontStyle=0;strokeWidth=2;resizeParent=0;resizeLast=1;shadow=0;dashed=0;align=center;fillColor=#60a917;fontColor=#ffffff;strokeColor=#2D7600;" parent="1" vertex="1">
          <mxGeometry x="610" y="40" width="193" height="140" as="geometry" />
        </mxCell>
        <mxCell id="_c35fh7YaVgXNuq9wMzC-3" value="cod_autor&#xa;nombre_autor&#xa;apellido_autor &#xa;fecha_nacimiento &#xa;muerte_autor &#xa;tipo_autor (Principal, Coautor)&#xa;&#xa;&#xa;&#xa;" style="align=left;strokeColor=none;fillColor=none;spacingLeft=4;fontSize=12;verticalAlign=top;resizable=0;rotatable=0;part=1;" parent="_c35fh7YaVgXNuq9wMzC-2" vertex="1">
          <mxGeometry y="30" width="193" height="110" as="geometry" />
        </mxCell>
        <mxCell id="_c35fh7YaVgXNuq9wMzC-4" value="Datos del Libro" style="swimlane;childLayout=stackLayout;horizontal=1;startSize=30;horizontalStack=0;rounded=1;fontSize=14;fontStyle=0;strokeWidth=2;resizeParent=0;resizeLast=1;shadow=0;dashed=0;align=center;fillColor=#60a917;fontColor=#ffffff;strokeColor=#2D7600;" parent="1" vertex="1">
          <mxGeometry x="80" y="40" width="190" height="130" as="geometry" />
        </mxCell>
        <mxCell id="_c35fh7YaVgXNuq9wMzC-5" value="id_libro &#xa;ISBN &#xa;titulo &#xa;numero_paginas &#xa;cod_autor &#xa;stock&#xa;" style="align=left;strokeColor=none;fillColor=none;spacingLeft=4;fontSize=12;verticalAlign=top;resizable=0;rotatable=0;part=1;" parent="_c35fh7YaVgXNuq9wMzC-4" vertex="1">
          <mxGeometry y="30" width="190" height="100" as="geometry" />
        </mxCell>
        <mxCell id="_c35fh7YaVgXNuq9wMzC-6" value="Prestamo" style="swimlane;childLayout=stackLayout;horizontal=1;startSize=30;horizontalStack=0;rounded=1;fontSize=14;fontStyle=0;strokeWidth=2;resizeParent=0;resizeLast=1;shadow=0;dashed=0;align=center;fillColor=#60a917;fontColor=#ffffff;strokeColor=#2D7600;" parent="1" vertex="1">
          <mxGeometry x="40" y="480" width="230" height="130" as="geometry" />
        </mxCell>
        <mxCell id="_c35fh7YaVgXNuq9wMzC-7" value="id_prestamo&#xa;id_libro&#xa;rut_socio,&#xa;fecha_inicio, &#xa;fecha_devolución, &#xa;fecha_real_devolución" style="align=left;strokeColor=none;fillColor=none;spacingLeft=4;fontSize=12;verticalAlign=top;resizable=0;rotatable=0;part=1;" parent="_c35fh7YaVgXNuq9wMzC-6" vertex="1">
          <mxGeometry y="30" width="230" height="100" as="geometry" />
        </mxCell>
        <mxCell id="_c35fh7YaVgXNuq9wMzC-8" value="Socio" style="swimlane;childLayout=stackLayout;horizontal=1;startSize=30;horizontalStack=0;rounded=1;fontSize=14;fontStyle=0;strokeWidth=2;resizeParent=0;resizeLast=1;shadow=0;dashed=0;align=center;fillColor=#60a917;fontColor=#ffffff;strokeColor=#2D7600;" parent="1" vertex="1">
          <mxGeometry x="600" y="485" width="160" height="120" as="geometry" />
        </mxCell>
        <mxCell id="_c35fh7YaVgXNuq9wMzC-9" value="rut, &#xa;nombre, &#xa;apellido, &#xa;dirección &#xa;teléfono" style="align=left;strokeColor=none;fillColor=none;spacingLeft=4;fontSize=12;verticalAlign=top;resizable=0;rotatable=0;part=1;" parent="_c35fh7YaVgXNuq9wMzC-8" vertex="1">
          <mxGeometry y="30" width="160" height="90" as="geometry" />
        </mxCell>
        <mxCell id="_c35fh7YaVgXNuq9wMzC-14" value="&lt;div&gt;Direccion y Telefono, deben ser unicas&lt;/div&gt;&lt;div&gt;para el socio. Socio, solo puede pedir 1 vez&lt;br&gt;&lt;/div&gt;" style="shape=note;size=20;whiteSpace=wrap;html=1;fillColor=#e3c800;strokeColor=#B09500;align=left;fontColor=#000000;" parent="1" vertex="1">
          <mxGeometry x="560" y="605" width="243" height="30" as="geometry" />
        </mxCell>
        <mxCell id="_c35fh7YaVgXNuq9wMzC-15" value="&lt;div&gt;ISBN (Largo 13)&lt;/div&gt;&lt;div&gt;Cod_autor (serial)&lt;br&gt;&lt;/div&gt;" style="shape=note;size=20;whiteSpace=wrap;html=1;fillColor=#e3c800;strokeColor=#B09500;align=left;fontColor=#000000;" parent="1" vertex="1">
          <mxGeometry x="160" y="180" width="180" height="40" as="geometry" />
        </mxCell>
        <mxCell id="_c35fh7YaVgXNuq9wMzC-16" value="Tipo_Autor. ssi, debe tener 1 autor principal" style="shape=note;size=20;whiteSpace=wrap;html=1;fillColor=#e3c800;strokeColor=#B09500;fontColor=#000000;align=left;" parent="1" vertex="1">
          <mxGeometry x="579" y="180" width="224" height="40" as="geometry" />
        </mxCell>
        <mxCell id="_c35fh7YaVgXNuq9wMzC-17" value="ISBN (Largo 13), ssi, 1 autor principal" style="shape=note;size=20;whiteSpace=wrap;html=1;fillColor=#e3c800;strokeColor=#B09500;align=left;fontColor=#000000;" parent="1" vertex="1">
          <mxGeometry x="40" y="610" width="220" height="20" as="geometry" />
        </mxCell>
        <mxCell id="YBvaiXK_3SJ0PdJNFyFW-1" value="" style="edgeStyle=entityRelationEdgeStyle;fontSize=12;html=1;endArrow=ERmany;startArrow=ERmany;rounded=0;entryX=-0.001;entryY=0.315;entryDx=0;entryDy=0;entryPerimeter=0;exitX=1;exitY=0.25;exitDx=0;exitDy=0;" parent="1" source="_c35fh7YaVgXNuq9wMzC-5" target="_c35fh7YaVgXNuq9wMzC-3" edge="1">
          <mxGeometry width="100" height="100" relative="1" as="geometry">
            <mxPoint x="580" y="330" as="sourcePoint" />
            <mxPoint x="680" y="230" as="targetPoint" />
          </mxGeometry>
        </mxCell>
        <mxCell id="YBvaiXK_3SJ0PdJNFyFW-2" value="Detalle Autor" style="swimlane;childLayout=stackLayout;horizontal=1;startSize=30;horizontalStack=0;rounded=1;fontSize=14;fontStyle=0;strokeWidth=2;resizeParent=0;resizeLast=1;shadow=0;dashed=0;align=center;fillColor=#fa6800;fontColor=#000000;strokeColor=#C73500;" parent="1" vertex="1">
          <mxGeometry x="367" y="100" width="160" height="120" as="geometry" />
        </mxCell>
        <mxCell id="YBvaiXK_3SJ0PdJNFyFW-3" value="id_libro&#xa;cod_autor&#xa;tipo_autor" style="align=left;strokeColor=none;fillColor=none;spacingLeft=4;fontSize=12;verticalAlign=top;resizable=0;rotatable=0;part=1;" parent="YBvaiXK_3SJ0PdJNFyFW-2" vertex="1">
          <mxGeometry y="30" width="160" height="90" as="geometry" />
        </mxCell>
        <mxCell id="YBvaiXK_3SJ0PdJNFyFW-8" value="" style="edgeStyle=entityRelationEdgeStyle;fontSize=12;html=1;endArrow=ERmany;startArrow=ERmany;rounded=0;exitX=1;exitY=0.2;exitDx=0;exitDy=0;exitPerimeter=0;entryX=0;entryY=0.111;entryDx=0;entryDy=0;entryPerimeter=0;" parent="1" source="_c35fh7YaVgXNuq9wMzC-7" target="_c35fh7YaVgXNuq9wMzC-9" edge="1">
          <mxGeometry width="100" height="100" relative="1" as="geometry">
            <mxPoint x="570" y="670" as="sourcePoint" />
            <mxPoint x="670" y="570" as="targetPoint" />
          </mxGeometry>
        </mxCell>
        <mxCell id="XmDsRIU-4_LHJB0tMwQW-3" value="" style="fontSize=12;html=1;endArrow=ERmany;startArrow=none;rounded=0;entryX=0.25;entryY=1;entryDx=0;entryDy=0;" edge="1" parent="1" source="XmDsRIU-4_LHJB0tMwQW-1" target="_c35fh7YaVgXNuq9wMzC-5">
          <mxGeometry width="100" height="100" relative="1" as="geometry">
            <mxPoint x="130" y="380" as="sourcePoint" />
            <mxPoint x="700" y="439.5" as="targetPoint" />
          </mxGeometry>
        </mxCell>
        <mxCell id="XmDsRIU-4_LHJB0tMwQW-4" value="" style="fontSize=12;html=1;endArrow=ERmany;startArrow=ERmany;rounded=0;entryX=0.463;entryY=0.989;entryDx=0;entryDy=0;entryPerimeter=0;exitX=0.357;exitY=-0.008;exitDx=0;exitDy=0;exitPerimeter=0;" edge="1" parent="1" source="_c35fh7YaVgXNuq9wMzC-6" target="XmDsRIU-4_LHJB0tMwQW-2">
          <mxGeometry width="100" height="100" relative="1" as="geometry">
            <mxPoint x="132.5" y="650" as="sourcePoint" />
            <mxPoint x="130" y="470" as="targetPoint" />
          </mxGeometry>
        </mxCell>
        <mxCell id="XmDsRIU-4_LHJB0tMwQW-1" value="Detalle_Prestamo" style="swimlane;childLayout=stackLayout;horizontal=1;startSize=30;horizontalStack=0;rounded=1;fontSize=14;fontStyle=0;strokeWidth=2;resizeParent=0;resizeLast=1;shadow=0;dashed=0;align=center;fillColor=#fa6800;fontColor=#000000;strokeColor=#C73500;" vertex="1" parent="1">
          <mxGeometry x="60" y="280" width="160" height="120" as="geometry" />
        </mxCell>
        <mxCell id="XmDsRIU-4_LHJB0tMwQW-2" value="id_libro&#xa;id_prestamo&#xa;rut_socio,&#xa;fecha_devolución&#xa;&#xa;" style="align=left;strokeColor=none;fillColor=none;spacingLeft=4;fontSize=12;verticalAlign=top;resizable=0;rotatable=0;part=1;" vertex="1" parent="XmDsRIU-4_LHJB0tMwQW-1">
          <mxGeometry y="30" width="160" height="90" as="geometry" />
        </mxCell>
      </root>
    </mxGraphModel>
  </diagram>
</mxfile>
